<mxfile host="Electron" agent="Mozilla/5.0 (Windows NT 10.0; Win64; x64) AppleWebKit/537.36 (KHTML, like Gecko) draw.io/26.0.4 Chrome/128.0.6613.186 Electron/32.2.5 Safari/537.36" version="26.0.4" pages="5">
  <diagram id="qX1jfU5W3qG1-0fOzwVS" name="Standard Layout">
    <mxGraphModel dx="1050" dy="1798" grid="1" gridSize="10" guides="1" tooltips="1" connect="1" arrows="1" fold="1" page="1" pageScale="1" pageWidth="827" pageHeight="1169" math="0" shadow="0">
      <root>
        <mxCell id="0" />
        <mxCell id="1" parent="0" />
        <mxCell id="Z7zMPSz6MhLUH9yBZXkY-2" value="" style="rounded=0;whiteSpace=wrap;html=1;" vertex="1" parent="1">
          <mxGeometry x="120" y="-1120" width="600" height="800" as="geometry" />
        </mxCell>
        <mxCell id="Z7zMPSz6MhLUH9yBZXkY-3" value="Navbar" style="rounded=0;whiteSpace=wrap;html=1;" vertex="1" parent="1">
          <mxGeometry x="120" y="-1120" width="600" height="60" as="geometry" />
        </mxCell>
        <mxCell id="J2n_gh_vp92pHgk3qQJn-1" value="Sticky Footer with socials and contact form" style="rounded=0;whiteSpace=wrap;html=1;" vertex="1" parent="1">
          <mxGeometry x="120" y="-440" width="600" height="120" as="geometry" />
        </mxCell>
      </root>
    </mxGraphModel>
  </diagram>
  <diagram name="Lander" id="_iGY4OviNpBIbH8urit4">
    <mxGraphModel dx="1050" dy="629" grid="1" gridSize="10" guides="1" tooltips="1" connect="1" arrows="1" fold="1" page="1" pageScale="1" pageWidth="850" pageHeight="1100" background="none" math="0" shadow="0">
      <root>
        <mxCell id="0" />
        <mxCell id="1" parent="0" />
        <mxCell id="exsp4WsbXxMlBDwpNWck-7" value="" style="group;fillColor=default;fontColor=default;" parent="1" vertex="1" connectable="0">
          <mxGeometry x="120" y="40" width="600" height="800" as="geometry" />
        </mxCell>
        <mxCell id="exsp4WsbXxMlBDwpNWck-3" value="" style="endArrow=none;html=1;rounded=0;" parent="exsp4WsbXxMlBDwpNWck-7" edge="1">
          <mxGeometry width="50" height="50" relative="1" as="geometry">
            <mxPoint y="800" as="sourcePoint" />
            <mxPoint as="targetPoint" />
          </mxGeometry>
        </mxCell>
        <mxCell id="exsp4WsbXxMlBDwpNWck-4" value="" style="endArrow=none;html=1;rounded=0;" parent="exsp4WsbXxMlBDwpNWck-7" edge="1">
          <mxGeometry width="50" height="50" relative="1" as="geometry">
            <mxPoint as="sourcePoint" />
            <mxPoint x="600" as="targetPoint" />
          </mxGeometry>
        </mxCell>
        <mxCell id="exsp4WsbXxMlBDwpNWck-5" value="" style="endArrow=none;html=1;rounded=0;" parent="exsp4WsbXxMlBDwpNWck-7" edge="1">
          <mxGeometry width="50" height="50" relative="1" as="geometry">
            <mxPoint x="600" as="sourcePoint" />
            <mxPoint x="600" y="800" as="targetPoint" />
          </mxGeometry>
        </mxCell>
        <mxCell id="exsp4WsbXxMlBDwpNWck-6" value="" style="endArrow=none;html=1;rounded=0;" parent="exsp4WsbXxMlBDwpNWck-7" edge="1">
          <mxGeometry width="50" height="50" relative="1" as="geometry">
            <mxPoint x="600" y="800" as="sourcePoint" />
            <mxPoint y="800" as="targetPoint" />
          </mxGeometry>
        </mxCell>
        <mxCell id="exsp4WsbXxMlBDwpNWck-8" value="Luc Stolk" style="rounded=0;whiteSpace=wrap;html=1;fillColor=none;fontColor=default;pointerEvents=0;align=center;verticalAlign=top;fontFamily=Helvetica;fontSize=12;gradientColor=none;" parent="exsp4WsbXxMlBDwpNWck-7" vertex="1">
          <mxGeometry x="160" y="80" width="280" height="40" as="geometry" />
        </mxCell>
        <mxCell id="Prnc1hdNEmqNtUjoInbW-5" value="Nav bar" style="rounded=0;whiteSpace=wrap;html=1;fillColor=none;pointerEvents=0;align=center;verticalAlign=top;fontFamily=Helvetica;fontSize=12;fontColor=default;gradientColor=none;" vertex="1" parent="exsp4WsbXxMlBDwpNWck-7">
          <mxGeometry width="600" height="60" as="geometry" />
        </mxCell>
        <mxCell id="Prnc1hdNEmqNtUjoInbW-6" value="About me" style="rounded=0;whiteSpace=wrap;html=1;" vertex="1" parent="exsp4WsbXxMlBDwpNWck-7">
          <mxGeometry x="60" y="160" width="480" height="520" as="geometry" />
        </mxCell>
      </root>
    </mxGraphModel>
  </diagram>
  <diagram id="v8iYlAijQDqwXB8XVqP2" name="Portfolio">
    <mxGraphModel dx="1050" dy="629" grid="1" gridSize="10" guides="1" tooltips="1" connect="1" arrows="1" fold="1" page="1" pageScale="1" pageWidth="827" pageHeight="1169" math="0" shadow="0">
      <root>
        <mxCell id="0" />
        <mxCell id="1" parent="0" />
        <mxCell id="SIITyEwNQqfgqoIIooJc-1" value="" style="rounded=0;whiteSpace=wrap;html=1;" vertex="1" parent="1">
          <mxGeometry x="120" y="40" width="600" height="800" as="geometry" />
        </mxCell>
        <mxCell id="EWNJbaNnC6ywhO_Lnymh-1" value="" style="rounded=0;whiteSpace=wrap;html=1;" vertex="1" parent="1">
          <mxGeometry x="120" y="40" width="600" height="60" as="geometry" />
        </mxCell>
        <mxCell id="EWNJbaNnC6ywhO_Lnymh-8" value="" style="group" vertex="1" connectable="0" parent="1">
          <mxGeometry x="170" y="540" width="500" height="160" as="geometry" />
        </mxCell>
        <mxCell id="EWNJbaNnC6ywhO_Lnymh-6" value="Clickable image that leads to github project" style="rounded=0;whiteSpace=wrap;html=1;" vertex="1" parent="EWNJbaNnC6ywhO_Lnymh-8">
          <mxGeometry width="166.66666666666666" height="160" as="geometry" />
        </mxCell>
        <mxCell id="EWNJbaNnC6ywhO_Lnymh-7" value="Description of project" style="rounded=0;whiteSpace=wrap;html=1;" vertex="1" parent="EWNJbaNnC6ywhO_Lnymh-8">
          <mxGeometry x="166.66666666666666" width="333.3333333333333" height="160" as="geometry" />
        </mxCell>
        <mxCell id="EWNJbaNnC6ywhO_Lnymh-9" value="" style="group" vertex="1" connectable="0" parent="1">
          <mxGeometry x="170" y="350" width="500" height="160" as="geometry" />
        </mxCell>
        <mxCell id="EWNJbaNnC6ywhO_Lnymh-4" value="Clickable image that leads to github project" style="rounded=0;whiteSpace=wrap;html=1;" vertex="1" parent="EWNJbaNnC6ywhO_Lnymh-9">
          <mxGeometry width="166.66666666666669" height="160" as="geometry" />
        </mxCell>
        <mxCell id="EWNJbaNnC6ywhO_Lnymh-5" value="Description of project" style="rounded=0;whiteSpace=wrap;html=1;" vertex="1" parent="EWNJbaNnC6ywhO_Lnymh-9">
          <mxGeometry x="166.66666666666669" width="333.33333333333337" height="160" as="geometry" />
        </mxCell>
        <mxCell id="EWNJbaNnC6ywhO_Lnymh-10" value="" style="group" vertex="1" connectable="0" parent="1">
          <mxGeometry x="170" y="160" width="500" height="160" as="geometry" />
        </mxCell>
        <mxCell id="EWNJbaNnC6ywhO_Lnymh-2" value="Clickable image that leads to github project" style="rounded=0;whiteSpace=wrap;html=1;" vertex="1" parent="EWNJbaNnC6ywhO_Lnymh-10">
          <mxGeometry width="166.66666666666669" height="160" as="geometry" />
        </mxCell>
        <mxCell id="EWNJbaNnC6ywhO_Lnymh-3" value="Description of project" style="rounded=0;whiteSpace=wrap;html=1;" vertex="1" parent="EWNJbaNnC6ywhO_Lnymh-10">
          <mxGeometry x="166.66666666666669" width="333.33333333333337" height="160" as="geometry" />
        </mxCell>
        <mxCell id="u4Xa9RrC65A9reA1tpXt-1" value="" style="rounded=0;whiteSpace=wrap;html=1;" vertex="1" parent="1">
          <mxGeometry x="120" y="720" width="600" height="120" as="geometry" />
        </mxCell>
      </root>
    </mxGraphModel>
  </diagram>
  <diagram id="u5LIpCPaMIJfp1vBR9_4" name="Cv">
    <mxGraphModel dx="1050" dy="629" grid="1" gridSize="10" guides="1" tooltips="1" connect="1" arrows="1" fold="1" page="1" pageScale="1" pageWidth="827" pageHeight="1169" math="0" shadow="0">
      <root>
        <mxCell id="0" />
        <mxCell id="1" parent="0" />
        <mxCell id="c6osHmagLgJgvxi3YM5K-1" value="" style="rounded=0;whiteSpace=wrap;html=1;" parent="1" vertex="1">
          <mxGeometry x="120" y="80" width="600" height="800" as="geometry" />
        </mxCell>
        <mxCell id="c6osHmagLgJgvxi3YM5K-2" value="" style="rounded=0;whiteSpace=wrap;html=1;" parent="1" vertex="1">
          <mxGeometry x="120" y="80" width="600" height="60" as="geometry" />
        </mxCell>
        <mxCell id="c6osHmagLgJgvxi3YM5K-3" value="" style="rounded=0;whiteSpace=wrap;html=1;" parent="1" vertex="1">
          <mxGeometry x="120" y="820" width="600" height="60" as="geometry" />
        </mxCell>
        <mxCell id="c6osHmagLgJgvxi3YM5K-8" value="" style="group" parent="1" vertex="1" connectable="0">
          <mxGeometry x="180" y="200" width="500" height="160" as="geometry" />
        </mxCell>
        <mxCell id="c6osHmagLgJgvxi3YM5K-5" value="" style="rounded=0;whiteSpace=wrap;html=1;" parent="c6osHmagLgJgvxi3YM5K-8" vertex="1">
          <mxGeometry width="500" height="160" as="geometry" />
        </mxCell>
        <mxCell id="c6osHmagLgJgvxi3YM5K-6" value="Company + job title" style="text;html=1;align=center;verticalAlign=middle;whiteSpace=wrap;rounded=0;" parent="c6osHmagLgJgvxi3YM5K-8" vertex="1">
          <mxGeometry x="55" y="20" width="370" height="30" as="geometry" />
        </mxCell>
        <mxCell id="c6osHmagLgJgvxi3YM5K-7" value="Text about job description and tasks" style="text;html=1;align=center;verticalAlign=middle;whiteSpace=wrap;rounded=0;" parent="c6osHmagLgJgvxi3YM5K-8" vertex="1">
          <mxGeometry x="45" y="65" width="390" height="75" as="geometry" />
        </mxCell>
        <mxCell id="c6osHmagLgJgvxi3YM5K-9" value="" style="group" parent="1" vertex="1" connectable="0">
          <mxGeometry x="180" y="425" width="500" height="160" as="geometry" />
        </mxCell>
        <mxCell id="c6osHmagLgJgvxi3YM5K-10" value="" style="rounded=0;whiteSpace=wrap;html=1;" parent="c6osHmagLgJgvxi3YM5K-9" vertex="1">
          <mxGeometry width="500" height="160" as="geometry" />
        </mxCell>
        <mxCell id="c6osHmagLgJgvxi3YM5K-11" value="Company + job title" style="text;html=1;align=center;verticalAlign=middle;whiteSpace=wrap;rounded=0;" parent="c6osHmagLgJgvxi3YM5K-9" vertex="1">
          <mxGeometry x="55" y="20" width="370" height="30" as="geometry" />
        </mxCell>
        <mxCell id="c6osHmagLgJgvxi3YM5K-12" value="Text about job description and tasks" style="text;html=1;align=center;verticalAlign=middle;whiteSpace=wrap;rounded=0;" parent="c6osHmagLgJgvxi3YM5K-9" vertex="1">
          <mxGeometry x="45" y="65" width="390" height="75" as="geometry" />
        </mxCell>
        <mxCell id="c6osHmagLgJgvxi3YM5K-13" value="" style="group" parent="1" vertex="1" connectable="0">
          <mxGeometry x="180" y="630" width="500" height="160" as="geometry" />
        </mxCell>
        <mxCell id="c6osHmagLgJgvxi3YM5K-14" value="" style="rounded=0;whiteSpace=wrap;html=1;" parent="c6osHmagLgJgvxi3YM5K-13" vertex="1">
          <mxGeometry width="500" height="160" as="geometry" />
        </mxCell>
        <mxCell id="c6osHmagLgJgvxi3YM5K-15" value="Company + job title" style="text;html=1;align=center;verticalAlign=middle;whiteSpace=wrap;rounded=0;" parent="c6osHmagLgJgvxi3YM5K-13" vertex="1">
          <mxGeometry x="55" y="20" width="370" height="30" as="geometry" />
        </mxCell>
        <mxCell id="c6osHmagLgJgvxi3YM5K-16" value="Text about job description and tasks" style="text;html=1;align=center;verticalAlign=middle;whiteSpace=wrap;rounded=0;" parent="c6osHmagLgJgvxi3YM5K-13" vertex="1">
          <mxGeometry x="45" y="65" width="390" height="75" as="geometry" />
        </mxCell>
      </root>
    </mxGraphModel>
  </diagram>
  <diagram id="4HUA6MMEDMdrlj3V81x8" name="Connect-Four">
    <mxGraphModel dx="1050" dy="1798" grid="1" gridSize="10" guides="1" tooltips="1" connect="1" arrows="1" fold="1" page="1" pageScale="1" pageWidth="827" pageHeight="1169" math="0" shadow="0">
      <root>
        <mxCell id="0" />
        <mxCell id="1" parent="0" />
        <mxCell id="yazX14-FZLbSoF1iC7mR-1" value="" style="rounded=0;whiteSpace=wrap;html=1;" vertex="1" parent="1">
          <mxGeometry x="120" y="-1120" width="600" height="800" as="geometry" />
        </mxCell>
        <mxCell id="yazX14-FZLbSoF1iC7mR-2" value="Navbar" style="rounded=0;whiteSpace=wrap;html=1;" vertex="1" parent="1">
          <mxGeometry x="120" y="-1120" width="600" height="60" as="geometry" />
        </mxCell>
        <mxCell id="yazX14-FZLbSoF1iC7mR-3" value="Sticky Footer with socials and contact form" style="rounded=0;whiteSpace=wrap;html=1;" vertex="1" parent="1">
          <mxGeometry x="120" y="-440" width="600" height="120" as="geometry" />
        </mxCell>
        <mxCell id="yazX14-FZLbSoF1iC7mR-4" value="Connect-Four" style="rounded=0;whiteSpace=wrap;html=1;" vertex="1" parent="1">
          <mxGeometry x="120" y="-1060" width="450" height="620" as="geometry" />
        </mxCell>
        <mxCell id="yazX14-FZLbSoF1iC7mR-5" value="" style="rounded=0;whiteSpace=wrap;html=1;" vertex="1" parent="1">
          <mxGeometry x="570" y="-1060" width="150" height="620" as="geometry" />
        </mxCell>
      </root>
    </mxGraphModel>
  </diagram>
</mxfile>
